<?xml version="1.0" encoding="UTF-8" standalone="no"?>
<!-- Created with Inkscape (http://www.inkscape.org/) -->

<svg
   width="30.691673mm"
   height="30.691662mm"
   viewBox="0 0 30.691673 30.691662"
   version="1.1"
   id="svg763"
   xml:space="preserve"
   inkscape:version="1.2.2 (b0a8486541, 2022-12-01)"
   sodipodi:docname="qr-code.svg"
   xmlns:inkscape="http://www.inkscape.org/namespaces/inkscape"
   xmlns:sodipodi="http://sodipodi.sourceforge.net/DTD/sodipodi-0.dtd"
   xmlns="http://www.w3.org/2000/svg"
   xmlns:svg="http://www.w3.org/2000/svg"><sodipodi:namedview
     id="namedview765"
     pagecolor="#ffffff"
     bordercolor="#000000"
     borderopacity="0.25"
     inkscape:showpageshadow="2"
     inkscape:pageopacity="0.0"
     inkscape:pagecheckerboard="0"
     inkscape:deskcolor="#d1d1d1"
     inkscape:document-units="mm"
     showgrid="false"
     inkscape:zoom="1"
     inkscape:cx="142.5"
     inkscape:cy="72"
     inkscape:window-width="1314"
     inkscape:window-height="1048"
     inkscape:window-x="0"
     inkscape:window-y="0"
     inkscape:window-maximized="0"
     inkscape:current-layer="layer1" /><defs
     id="defs760"><clipPath
       clipPathUnits="userSpaceOnUse"
       id="clipPath1107"><rect
         style="fill:none;fill-opacity:1;stroke:#ffff00;stroke-width:0.938579"
         id="rect1109"
         width="113.85929"
         height="113.85929"
         x="611.32825"
         y="-211.11659"
         ry="7.5576687"
         transform="scale(-1,1)" /></clipPath><clipPath
       clipPathUnits="userSpaceOnUse"
       id="clipPath1107-9"><rect
         style="fill:none;fill-opacity:1;stroke:#ffff00;stroke-width:0.938579"
         id="rect1109-7"
         width="113.85929"
         height="113.85929"
         x="611.32825"
         y="-211.11659"
         ry="7.5576687"
         transform="scale(-1,1)" /></clipPath><clipPath
       clipPathUnits="userSpaceOnUse"
       id="clipPath1225"><rect
         style="fill:none;fill-opacity:1;stroke:#ffff00;stroke-width:0.938574"
         id="rect1227"
         width="113.85929"
         height="113.85929"
         x="611.32825"
         y="-211.11659"
         ry="7.5576687"
         transform="scale(-1,1)" /></clipPath><clipPath
       clipPathUnits="userSpaceOnUse"
       id="clipPath1107-75-6"><rect
         style="fill:none;fill-opacity:1;stroke:#ffff00;stroke-width:0.938579"
         id="rect1109-3-2"
         width="113.85929"
         height="113.85929"
         x="611.32825"
         y="-211.11659"
         ry="7.5576687"
         transform="scale(-1,1)" /></clipPath><clipPath
       clipPathUnits="userSpaceOnUse"
       id="clipPath919-3"><rect
         style="fill:none;fill-opacity:1;stroke:#ffff00;stroke-width:0.922758"
         id="rect921-6"
         width="111.79334"
         height="112.0893"
         x="98.290276"
         y="612.21326"
         ry="6.1026506"
         transform="matrix(0,-1,-1,0,0,0)" /></clipPath></defs><g
     inkscape:label="Layer 1"
     inkscape:groupmode="layer"
     id="layer1"
     transform="translate(-42.234932,-55.257129)"><path
       style="fill:#010101;stroke:none;stroke-width:0.264583"
       d="m 42.234932,55.257129 v 7.408333 h 7.40834 v -7.408333 h -7.40834 m 8.46667,0 v 3.175 h 1.05833 v 1.058333 h -1.05833 v 1.058333 h 1.05833 v -1.058333 h 1.05834 v 3.175 h 1.058329 v -3.175 h 1.05833 v 3.175 h 1.05833 v -1.058334 h 1.05834 v 2.116667 h -1.05834 v 1.058333 h 1.05834 v 3.175 h -2.11667 v 1.058334 h -1.05833 v -1.058334 h -5.291669 v -1.058333 h 1.05834 v -1.058333 h 1.05833 v 1.058333 h 3.174999 v -1.058333 h 1.05833 v 1.058333 h 1.05833 v -1.058333 h -1.05833 v -1.058334 h -1.05833 v -1.058333 h -1.058329 v 1.058333 h -1.05834 v -1.058333 h -6.35 v 1.058333 h -1.05833 v 2.116667 h -1.05833 v 1.058333 h 2.11666 v 1.058334 h -1.05833 v 1.058333 h 1.05833 v 1.058333 h -1.05833 v 1.058333 h 3.175 v 1.05833 h -1.05833 v 1.05834 h -1.05834 v -1.05834 h -3.175 v 4.23334 h 2.11667 v -1.05834 h 1.05833 v -1.05833 h 1.05834 v -1.05833 h 1.05833 v -1.05834 h 2.11667 v 1.05834 h -1.05834 v 1.05833 h -1.05833 v 1.05833 h 1.05833 v 1.05834 h 2.11667 v 5.29166 h 1.05833 v 1.05834 h 1.05834 v 1.05833 h -2.11667 v 1.05833 h 2.11667 v -1.05833 h 2.116659 v -1.05833 h -2.116659 v -3.175 h 1.058329 v 2.11666 h 3.175 v 2.11667 h -1.05834 v 1.05833 h 2.11667 v -1.05833 h 1.05833 v 1.05833 h 6.350004 v -1.05833 h 2.11667 v 1.05833 h 2.11667 v -1.05833 h 1.05833 v -1.05833 h 1.05833 v 1.05833 h 1.058341 v -2.11667 h -1.058341 v -3.175 h -1.05833 v 3.175 h -1.05833 v 1.05834 h -1.05834 v -1.05834 h -1.05833 v -1.05833 h 2.11667 v -1.05833 h -1.05834 v -1.05834 h 1.05834 v -2.11666 h 2.11666 v -1.05834 h -1.05833 v -1.05833 h -1.05833 v -1.05833 h 2.11666 v 1.05833 h 1.058341 v -1.05833 h -1.058341 v -1.05834 h -2.11666 v -1.05833 h 1.05833 v -2.116666 h 1.05833 v 2.116666 h 1.058341 v -5.291666 h -1.058341 v 2.116667 h -4.23333 v -1.058334 h -2.11667 v -2.116666 h -2.11666 v -2.116667 h 1.05833 v 1.058333 h 1.05833 v -1.058333 h -1.05833 v -3.175 h -1.05833 v -1.058333 h 1.05833 v -1.058333 h -1.05833 v 1.058333 h -2.11667 v -1.058333 h 1.05833 v -1.058334 h 2.11667 v -2.116666 h -1.05833 v 1.058333 h -1.05834 v -1.058333 h -1.05833 v 1.058333 h -1.05833 v 1.058333 h 1.05833 v 1.058334 h -1.05833 v 1.058333 h 1.05833 v 1.058333 h 2.11667 v 2.116667 h -1.05834 v -1.058334 h -1.05833 v 1.058334 h 1.05833 v 3.175 h -1.05833 v 1.058333 h -1.05833 v 1.058333 h 2.11666 v -2.116666 h 1.05834 v 3.175 h 1.05833 v -1.058334 h 1.05833 v 2.116667 h 1.05834 v 2.116666 h 2.11666 v 1.05833 h -1.05833 v 1.05834 h 1.05833 v 1.05833 h -2.11666 v 1.05833 h -1.05834 v -1.05833 h -1.05833 v 1.05833 h -1.05833 v -2.11666 h 1.05833 v -2.11667 h 1.05833 v -1.058333 h -1.05833 v -1.058333 h -2.11667 v -1.058333 h -1.05833 v 1.058333 h -1.05833 v 1.058333 h -1.058344 v -1.058333 h -2.11666 v 1.058333 h -1.05834 v -2.116666 h 2.11667 v -1.058334 h 1.05833 v -1.058333 h -1.05833 v -2.116667 h 3.175004 v -1.058333 h -3.175004 v -3.175 h 1.05833 v -2.116666 h -1.05833 v -1.058334 h 1.05833 v -2.116666 h -3.175 v 1.058333 h -3.174989 v 1.058333 h 1.058329 v 2.116667 h -1.058329 v -1.058333 h -1.05834 v -3.175 h -1.05833 m 14.816663,0 v 7.408333 h 7.408341 v -7.408333 h -7.408341 m -16.933333,1.058333 v 5.291666 h -5.29166 v -5.291666 h 5.29166 m 13.758333,0 v 1.058333 h -1.05833 v -1.058333 h 1.05833 m 9.525,0 v 5.291666 h -5.29166 v -5.291666 h 5.29166 m -27.516663,1.058333 v 3.175 h 3.175 v -3.175 h -3.175 m 23.283333,0 v 3.175 h 3.175 v -3.175 h -3.175 m -10.583334,1.058334 v 1.058333 h 1.05833 v 1.058333 h -1.05833 v -1.058333 h -2.11667 v -1.058333 h 2.11667 m -6.349999,3.174999 v 1.058334 h 1.05833 v -1.058334 h -1.05833 m 8.466659,0 v 1.058334 h 1.058344 v -1.058334 h -1.058344 m -16.933329,2.116667 v 2.116667 h 1.05834 v -2.116667 h -1.05834 m 25.400003,0 v 1.058333 h -1.05833 v 2.116667 h 1.05833 v -1.058333 h 1.05833 v -2.116667 h -1.05833 m 2.11667,0 v 3.175 h -1.05834 v 1.058333 h 1.05834 v -1.058333 h 1.05833 v -1.058333 h 1.05833 v -1.058334 h 1.058341 v -1.058333 h -3.175001 m -23.283333,1.058333 v 3.175 h 2.11666 v 1.058334 h 1.05834 v 1.058333 h 1.05833 v -1.058333 h 3.174999 v 1.058333 h 1.05833 v 1.058333 h -1.05833 v 1.058333 h 1.05833 v 1.05833 h 1.05833 v -1.05833 h 2.11667 v -1.058333 h 1.05833 v 1.058333 h 1.058344 v -1.058333 h 1.05833 v -1.058333 h 1.05833 v 2.116666 h -1.05833 v 2.11667 h 1.05833 v 2.11666 h -1.05833 v 1.05834 h -2.116674 v 1.05833 h -1.05833 v 1.05833 h 1.05833 v 1.05834 h -1.05833 v 1.05833 h 1.05833 v 2.11667 h 1.058344 v -2.11667 h 1.05833 v -1.05833 h -1.05833 v -2.11667 h 2.11666 v -1.05833 h 1.05834 v 1.05833 h -1.05834 v 1.05833 h -1.05833 v 1.05834 h 1.05833 v 1.05833 h 2.11667 v 1.05833 h 1.05833 v -1.05833 h 1.05834 v 2.11667 h -1.05834 v 1.05833 h -6.350004 v -1.05833 h -1.05833 v -2.11667 h -1.05833 v -6.35 h 1.05833 v -1.05833 h -2.11667 v 3.175 h -1.05833 v -1.05834 h -2.116659 v 1.05834 h 1.058329 v 2.11666 h -1.058329 v -1.05833 h -1.05834 v -1.05833 h -1.05833 v -1.05834 h -2.11667 v -1.05833 h 2.11667 v -3.175 h 1.05833 v -2.116666 h -1.05833 v 1.058333 h -1.05833 v 1.058333 h -1.05834 v -1.058333 h -2.11666 v -3.175 h -1.05834 v -3.175 h 1.05834 m 3.175,0 v 1.058334 h -1.05834 v 1.058333 h -1.05833 v -2.116667 h 2.11667 m 2.11666,0 v 1.058334 h -1.05833 v -1.058334 h 1.05833 m -4.23333,4.233334 v 1.058333 h 1.05833 v 1.058333 h 1.05834 v -1.058333 h -1.05834 v -1.058333 h -1.05833 m 20.108333,0 v 1.058333 h 2.11667 v 2.116666 h -1.05834 v -1.058333 h -1.05833 v -1.058333 h -1.05833 v -1.058333 h 1.05833 m -14.816663,1.058333 v 1.058333 h 1.058329 v -1.058333 h -1.058329 m -10.58334,1.058333 v 1.058333 h 1.05834 v -1.058333 h -1.05834 m 22.225003,0 v 1.058333 h -1.05833 v -1.058333 h 1.05833 m -12.700003,1.058333 v 1.05833 h 2.116669 v 1.05834 h -1.058329 v 1.05833 h 2.116659 v -2.11667 h -1.05833 v -1.05833 h -2.116669 m 6.349999,0 v 1.05833 h 1.05833 v -1.05833 h -1.05833 m 11.641674,1.05833 v 1.05834 h -1.05834 v -1.05834 h 1.05834 m -24.341673,1.05834 v 1.05833 h -1.05833 v -1.05833 h 1.05833 m 13.758329,0 v 1.05833 h -1.05833 v 1.05833 h 2.116674 v -2.11666 h -1.058344 m -8.466659,1.05833 v 1.05833 h 1.05833 v -1.05833 h -1.05833 m 16.933333,2.11667 v 3.175 h -3.175 v -3.175 h 3.175 m -25.400003,1.05833 v 7.40833 h 7.40834 v -7.40833 h -7.40834 m 13.758329,0 v 3.175 h -1.05833 v -3.175 h 1.05833 m 9.525004,0 v 1.05833 h 1.05834 v -1.05833 h -1.05834 m -16.933333,1.05833 v 5.29167 h -5.29166 v -5.29167 h 5.29166 m -4.23333,1.05834 v 3.175 h 3.175 v -3.175 h -3.175 m 16.933333,1.05833 v 2.11667 h 1.05833 v -2.11667 h -1.05833 m 7.40833,2.11667 v 1.05833 h -1.05833 v -1.05833 z"
       id="path898" /></g></svg>
